<svg width="13" height="15" viewBox="0 0 13 15" fill="none" xmlns="http://www.w3.org/2000/svg">
<path d="M12.5934 5.1163C12.5224 5.15808 10.8337 6.03983 10.8337 7.99486C10.9133 10.2245 12.9648 11.0064 13 11.0064C12.9648 11.0481 12.6903 12.0715 11.8771 13.1443C11.2317 14.0683 10.5153 15 9.42759 15C8.39289 15 8.02146 14.3841 6.82758 14.3841C5.54546 14.3841 5.18268 15 4.20104 15C3.11328 15 2.34389 14.0184 1.66332 13.103C0.779161 11.9049 0.0276509 10.0248 0.00112017 8.21951C-0.0167592 7.26288 0.178183 6.32253 0.673038 5.5238C1.37149 4.40873 2.61843 3.65179 3.98015 3.62683C5.02349 3.59373 5.95207 4.30075 6.5888 4.30075C7.19901 4.30075 8.33983 3.62683 9.6306 3.62683C10.1877 3.62737 11.6735 3.78527 12.5934 5.1163ZM6.50056 3.43583C6.31485 2.56222 6.82758 1.68861 7.30513 1.13135C7.91534 0.457423 8.87909 0 9.71019 0C9.76326 0.873607 9.42701 1.73039 8.82603 2.3544C8.28677 3.02832 7.35819 3.53567 6.50056 3.43583Z" fill="white"/>
</svg>
