<svg width="14" height="14" viewBox="0 0 14 14" fill="none" xmlns="http://www.w3.org/2000/svg">
<path fill-rule="evenodd" clip-rule="evenodd" d="M13.72 7.15912C13.72 6.66275 13.6755 6.18548 13.5927 5.72729H7V8.43503H10.7673C10.605 9.31003 10.1118 10.0514 9.37046 10.5478V12.3041H11.6327C12.9564 11.0855 13.72 9.29094 13.72 7.15912Z" fill="#4285F4"/>
<path fill-rule="evenodd" clip-rule="evenodd" d="M6.99973 14C8.88973 14 10.4743 13.3732 11.6325 12.3041L9.37019 10.5477C8.74337 10.9677 7.94155 11.2159 6.99973 11.2159C5.17654 11.2159 3.63336 9.98451 3.0829 8.32996H0.744263V10.1436C1.89608 12.4313 4.26336 14 6.99973 14Z" fill="#34A853"/>
<path fill-rule="evenodd" clip-rule="evenodd" d="M3.08319 8.32997C2.94319 7.90997 2.86364 7.46133 2.86364 6.99997C2.86364 6.5386 2.94319 6.08996 3.08319 5.66996V3.85632H0.744547C0.270455 4.80133 0 5.87042 0 6.99997C0 8.12951 0.270455 9.19861 0.744547 10.1436L3.08319 8.32997Z" fill="#FBBC05"/>
<path fill-rule="evenodd" clip-rule="evenodd" d="M6.99973 2.7841C8.02746 2.7841 8.95019 3.13728 9.67564 3.83092L11.6834 1.82319C10.4711 0.693638 8.88655 0 6.99973 0C4.26336 0 1.89608 1.56864 0.744263 3.85637L3.0829 5.67001C3.63336 4.01546 5.17654 2.7841 6.99973 2.7841Z" fill="#EA4335"/>
</svg>
