<svg width="16" height="15" viewBox="0 0 16 15" fill="none" xmlns="http://www.w3.org/2000/svg">
<path d="M7.91249 0C3.53236 0 0 2.82586 0 6.25649C0 8.48329 1.46946 10.4331 3.67366 11.5465L2.92762 14.3329C2.91356 14.3747 2.91139 14.4195 2.92137 14.4624C2.93136 14.5053 2.95309 14.5446 2.98414 14.5759C3.02942 14.6158 3.08767 14.6379 3.14804 14.6381C3.1981 14.634 3.24558 14.6143 3.28368 14.5815L6.49389 12.4169C6.96776 12.4823 7.44544 12.5163 7.92379 12.5186C12.2983 12.5186 15.8363 9.69277 15.8363 6.25649C15.8363 2.82021 12.287 0 7.91249 0Z" fill="#392020"/>
<path d="M2.76907 5.26738H1.90435C1.79717 5.27049 1.69132 5.24304 1.59915 5.18825C1.55823 5.16261 1.52305 5.12877 1.49582 5.0889C1.46859 5.04902 1.44989 5.00395 1.4409 4.9565C1.43816 4.92642 1.43816 4.89621 1.4409 4.86613C1.43822 4.80984 1.44914 4.75371 1.47275 4.70255C1.49637 4.65138 1.53197 4.60669 1.57654 4.57222C1.67508 4.50086 1.794 4.46317 1.91565 4.4648H4.52112C4.62915 4.46101 4.73572 4.49062 4.82632 4.54959C4.8682 4.5741 4.90412 4.60763 4.93149 4.6477C4.95886 4.68777 4.97698 4.73341 4.98457 4.78133C4.98732 4.80953 4.98732 4.83793 4.98457 4.86613C4.98723 4.92322 4.97633 4.98012 4.95275 5.03219C4.92917 5.08426 4.89359 5.12996 4.84892 5.16562C4.75279 5.23689 4.63501 5.27285 4.51547 5.26738H3.67901V8.24022C3.6824 8.30356 3.6726 8.36688 3.65022 8.42622C3.62785 8.48557 3.59338 8.53965 3.54901 8.58497C3.50647 8.62831 3.45533 8.66228 3.39887 8.68467C3.34241 8.70705 3.28189 8.71736 3.22121 8.71495C3.11507 8.71798 3.01118 8.68406 2.92732 8.61892C2.84748 8.55528 2.7933 8.46493 2.77472 8.36455C2.76914 8.32329 2.76914 8.28148 2.77472 8.24022L2.76907 5.26738Z" fill="#392020"/>
<path d="M5.23406 4.68523C5.25891 4.59223 5.31729 4.51169 5.39796 4.45915C5.48391 4.41043 5.58185 4.38693 5.68055 4.39133H5.89531C6.00004 4.38758 6.10375 4.41302 6.19486 4.46481C6.2914 4.52973 6.36 4.62858 6.38702 4.74174L7.51738 7.93501C7.54668 8.01832 7.57121 8.10327 7.59085 8.18938C7.59278 8.22515 7.59278 8.26096 7.59085 8.29673C7.59276 8.35181 7.58262 8.40665 7.56115 8.45741C7.53967 8.50817 7.50737 8.55365 7.46651 8.59063C7.42691 8.63122 7.37938 8.66321 7.32686 8.6846C7.27435 8.70599 7.218 8.71631 7.16131 8.71496C7.07414 8.72362 6.98659 8.70272 6.91277 8.65555C6.83895 8.60839 6.78315 8.53774 6.75438 8.455L6.51701 7.75984H5.03059L4.79322 8.455C4.76514 8.53937 4.70868 8.61139 4.63344 8.6588C4.55821 8.7062 4.46887 8.72604 4.38064 8.71496C4.28507 8.71746 4.19145 8.68757 4.115 8.63016C4.04052 8.57093 3.99027 8.48655 3.97371 8.39283C3.97071 8.36088 3.97071 8.32869 3.97371 8.29673C3.964 8.24063 3.964 8.18332 3.97371 8.12722C3.97371 8.06505 4.01327 7.99718 4.03588 7.93501L5.23406 4.68523ZM5.79924 5.42565L5.26231 7.12118H6.3305L5.79924 5.42565Z" fill="#392020"/>
<path d="M7.72022 4.86626C7.71448 4.73943 7.75918 4.61548 7.84455 4.52151C7.88796 4.47773 7.94006 4.44352 7.9975 4.42113C8.05494 4.39874 8.11643 4.38861 8.17801 4.39146C8.28389 4.39023 8.3872 4.42403 8.4719 4.48757C8.5504 4.55386 8.60254 4.64608 8.61885 4.74753C8.62442 4.78689 8.62442 4.82689 8.61885 4.86626V7.8391H10.1731C10.2808 7.83769 10.3867 7.86705 10.4783 7.92382C10.5194 7.94919 10.5548 7.98297 10.5821 8.0229C10.6093 8.06282 10.6279 8.10801 10.6365 8.15557C10.6365 8.15557 10.6365 8.2121 10.6365 8.24036C10.6392 8.29664 10.6283 8.3527 10.6047 8.40387C10.5811 8.45503 10.5455 8.49979 10.5009 8.53426C10.4024 8.60562 10.2834 8.64325 10.1618 8.64161H8.25148C8.12982 8.64944 8.00888 8.61777 7.90672 8.55123C7.81535 8.4829 7.75446 8.38142 7.73717 8.26864C7.73303 8.20654 7.73303 8.14419 7.73717 8.08209L7.72022 4.86626Z" fill="#392020"/>
<path d="M10.7384 4.86629C10.735 4.73982 10.7794 4.61673 10.8628 4.52154C10.9475 4.44457 11.0561 4.39911 11.1704 4.39294C11.2847 4.38676 11.3976 4.4202 11.4901 4.48759C11.5703 4.55331 11.6244 4.64548 11.6427 4.74755C11.6455 4.78707 11.6455 4.82677 11.6427 4.86629V6.25095L13.0726 4.6006C13.1277 4.5443 13.1862 4.4915 13.2478 4.4424C13.3059 4.40784 13.3724 4.39016 13.44 4.39149C13.5387 4.39095 13.6353 4.42053 13.7169 4.47628C13.7553 4.50215 13.7881 4.53554 13.8134 4.57438C13.8386 4.61323 13.8558 4.65674 13.8638 4.70236C13.8661 4.71355 13.8661 4.72512 13.8638 4.73631C13.8611 4.74935 13.8611 4.76279 13.8638 4.77584C13.8637 4.83531 13.8481 4.89375 13.8186 4.94542C13.7886 5.00013 13.7526 5.05126 13.7113 5.09796L12.7731 6.12662L13.9034 7.87866V7.93516C13.9621 8.01616 14.0079 8.10582 14.0391 8.20085V8.22907C14.0456 8.29455 14.0362 8.36066 14.0115 8.42169C13.9869 8.48272 13.9479 8.53684 13.8978 8.57948C13.8035 8.65073 13.6881 8.68856 13.57 8.68689C13.4914 8.69013 13.4135 8.67253 13.3439 8.63598C13.2686 8.5855 13.2066 8.51767 13.163 8.43818L12.1118 6.74265L11.6088 7.26829V8.2121C11.6122 8.33856 11.5678 8.46165 11.4845 8.55685C11.4398 8.6005 11.3867 8.6346 11.3283 8.65695C11.27 8.67931 11.2077 8.68951 11.1453 8.68689C11.0411 8.68908 10.9392 8.65511 10.8571 8.59079C10.7773 8.52716 10.7231 8.43687 10.7045 8.33649C10.6989 8.29523 10.6989 8.25335 10.7045 8.2121L10.7384 4.86629Z" fill="#392020"/>
</svg>
