<svg width="359" height="177" viewBox="0 0 359 177" fill="none" xmlns="http://www.w3.org/2000/svg">
<path d="M311.897 84.3132C314.482 79.8317 324.285 65.073 330.835 88.1052C330.835 88.1052 335.64 95.0644 342.362 92.7375C349.084 90.4105 362.55 98.7056 353.501 106.742C344.452 114.778 344.452 114.778 344.452 114.778C344.452 114.778 350.032 123.591 352.811 131.261C355.591 138.931 349.795 151.212 349.795 151.212C349.795 151.212 319.157 166.057 301.749 152.828C284.34 139.599 276.907 124.97 281.797 112.904C286.667 100.839 289.231 93.4053 301.986 89.4625C310.41 86.8555 311.767 85.9506 311.703 85.6274C311.595 85.1965 311.66 84.7225 311.897 84.3132Z" fill="#FCEAD0"/>
<path d="M57.2289 101.679C57.2289 101.679 17.9299 73.3462 5.86442 123.547C5.86442 123.547 4.22696 155.348 30.2755 157.589C56.324 159.83 57.2504 143.111 57.2504 143.111C57.2504 143.111 78.602 168.47 96.2478 162.437C113.894 156.404 131.216 144.49 128.738 118.893C126.239 93.2973 101.44 82.9986 90.3443 88.3419C79.2268 93.7067 74.6161 84.0328 57.2289 101.679Z" fill="#E26A6A"/>
<path d="M248.919 26.4634C248.919 26.4634 208.414 28.7904 203.307 86.5753C198.201 144.36 227.805 153.194 247.195 155.542C266.565 157.891 302.007 147.183 297.224 90.9921C292.419 34.8231 256.934 19.9567 248.919 26.4634Z" fill="#656CD2"/>
<path d="M162.909 5.43497C162.909 5.43497 112.924 4.20688 110.295 89.6132C110.295 89.6132 86.7031 162.652 154.14 171.464C221.578 180.277 226.512 125.508 226.663 124.883C226.813 124.258 225.736 90.2165 220.63 82.18C215.524 74.1435 213.972 53.8692 213.972 53.8692C213.972 53.8692 203.286 -6.32886 162.909 5.43497Z" fill="#F1C40F"/>
<path d="M140.459 72.8076C145.695 75.6516 152.589 75.1129 157.329 71.4718C158.644 70.4591 160.755 71.1701 161.509 72.6568C162.263 74.1219 161.854 75.9963 160.82 77.289C159.807 78.5818 158.299 79.4005 156.748 80.0038C151.447 82.0937 145.393 81.986 140.028 80.0684C138.089 79.379 136.107 78.3232 135.267 76.4488C134.426 74.5743 135.482 71.8381 137.529 71.7303C138.585 71.6872 139.533 72.2905 140.459 72.8076Z" fill="black"/>
<path d="M162.069 62.6598C162.716 64.6851 160.626 67.012 158.536 66.6027C156.424 66.1933 155.412 63.1338 156.834 61.5395C158.299 59.9236 161.423 60.5915 162.069 62.6598Z" fill="black"/>
<path d="M258.507 124.861C257.774 126.348 255.534 126.628 254.219 125.594C252.905 124.581 252.539 122.664 252.97 121.069C253.401 119.475 254.521 118.139 255.749 117.04C259.929 113.313 265.919 111.719 271.391 112.861C272.576 113.119 273.761 113.485 274.688 114.261C275.614 115.037 276.239 116.265 276.002 117.45C275.679 119.195 273.74 120.165 271.973 120.251C270.206 120.337 268.461 119.82 266.694 119.798C263.333 119.798 260.015 121.824 258.507 124.861Z" fill="black"/>
<path d="M136.732 65.5684C136.301 63.4138 138.886 61.3024 140.912 62.1642C142.937 63.026 143.195 66.3441 141.343 67.5291C139.684 68.6063 137.12 67.5075 136.732 65.5684Z" fill="black"/>
<path d="M258.852 128.654C259.627 127.038 261.933 126.391 263.419 127.382C264.927 128.352 265.251 130.722 264.087 132.079C263.096 133.221 261.222 133.501 259.95 132.661C258.679 131.821 258.184 130.033 258.852 128.654Z" fill="black"/>
<path d="M275.937 129.149C274.106 129.365 272.318 127.684 272.404 125.853C272.49 124.021 274.451 122.513 276.239 122.901C277.704 123.203 278.824 124.668 278.76 126.154C278.673 127.619 277.424 128.977 275.937 129.149Z" fill="black"/>
<path d="M332.602 83.0633C332.731 86.5752 336.674 88.7082 340.186 88.9668C343.698 89.2253 347.317 88.4281 350.678 89.4192C356.151 91.0567 359.297 97.4988 358.198 103.101C357.077 108.702 352.445 113.162 347.102 115.188C352.467 122.233 357.918 130.248 357.271 139.103C356.345 151.793 343.073 160.261 330.469 162.028C314.439 164.29 297.483 158.796 285.805 147.592C269.883 160.95 246.054 164.053 227.266 155.198C222.526 152.957 217.42 157.007 213.369 160.325C187.881 181.332 147.698 181.849 121.693 161.51C117.923 158.559 112.579 161.381 108.27 163.493C93.7485 170.538 74.9823 167.522 63.4124 156.275C61.2363 154.163 57.8537 151.664 55.613 153.711C42.6426 165.561 20.0413 164.01 8.34214 150.91C-3.33551 137.81 -2.58142 115.705 9.52715 102.971C21.6357 90.2595 43.1381 88.2127 57.7891 97.8866C71.2119 85.1532 91.5508 80.2193 109.304 85.3902C109.024 68.003 111.093 50.228 118.655 34.5429C126.196 18.8793 139.834 5.52112 156.704 1.36284C169.244 -1.73971 183.033 0.522559 193.935 7.46021C204.837 14.3979 212.723 25.9247 215.222 38.615C225.133 27.0882 240.581 19.6119 255.577 22.0465C269 24.2226 280.311 33.9396 287.335 45.5957C294.38 57.2303 297.698 70.6962 300.348 84.0544C305.864 84.5715 308.665 77.7416 312.931 74.2081C319.847 68.5417 332.3 74.165 332.602 83.0633ZM188.312 13.6438C178.918 7.58948 166.615 6.90002 156.058 10.5843C145.501 14.2686 136.646 21.9603 130.268 31.1387C127.144 35.6633 124.537 40.5541 122.813 45.7681C119.129 56.7994 119.388 68.6709 118.181 80.2409C116.975 91.9832 114.26 103.553 113.678 115.338C113.096 127.124 114.906 139.534 121.822 149.079C130.419 160.929 145.522 166.444 160.109 167.672C174.695 168.901 189.906 166.315 202.252 158.473C214.597 150.608 223.689 137.078 224.293 122.448C224.659 113.486 221.966 104.738 219.919 96.0122C214.985 74.9622 213.563 52.7704 204.234 33.2717C200.549 25.6015 195.508 18.276 188.312 13.6438ZM226.9 145.416C230.864 148.389 235.841 149.66 240.71 150.436C254.65 152.655 270.551 150.867 280.117 140.482C285.676 134.449 288.347 126.327 289.942 118.29C292.915 103.187 292.549 87.4371 288.886 72.506C285.848 60.2036 280.397 48.1596 271.283 39.3691C266.112 34.3921 259.627 30.4923 252.496 29.7382C240.84 28.5317 229.938 35.9003 222.009 44.54C221.147 45.4665 220.307 46.4575 219.94 47.6641C219.531 49.0645 219.833 50.5512 220.156 51.9947C223.129 65.6761 226.102 79.3575 229.076 93.0604C230.972 101.829 232.889 110.663 233.083 119.626C233.234 128.567 231.618 137.789 226.9 145.416ZM58.7801 140.697C60.6546 141.085 61.9042 142.809 63.0677 144.317C73.4311 157.697 93.7054 162.2 108.744 154.444C110.532 153.517 112.536 151.643 111.653 149.833C103.767 133.437 102.151 114.11 107.257 96.6585C107.775 94.8918 105.555 93.6206 103.767 93.2112C88.4267 89.6778 71.3627 95.0857 60.8916 106.828C60.0298 107.798 59.1464 108.832 57.9183 109.198C55.2898 109.995 53.006 107.41 51.0453 105.449C42.7934 97.1756 28.0347 97.6496 19.2226 105.32C10.4105 112.99 7.6096 126.219 10.863 137.423C12.1772 141.926 14.4395 146.256 17.9945 149.294C22.8207 153.409 29.6722 154.702 35.8988 153.474C42.1255 152.246 47.7273 148.691 52.2088 144.209C54.0401 142.378 56.2378 140.18 58.7801 140.697ZM344.689 96.0553C342.556 96.0553 340.574 97.2187 338.441 97.3049C335.984 97.4126 333.722 96.0768 331.632 94.7841C329.262 93.3405 326.655 91.5307 326.289 88.7729C326.138 87.5879 326.418 86.3813 326.354 85.1748C326.117 80.8441 320.062 78.1725 316.701 80.9303C313.943 83.1926 313.577 87.5448 310.69 89.6132C308.966 90.8412 306.704 90.9705 304.657 91.5738C302.61 92.1771 300.499 93.7499 300.607 95.8613C301.447 110.491 298.668 125.314 292.57 138.651C291.622 140.719 293.497 142.938 295.285 144.317C304.313 151.319 315.99 154.81 327.388 153.926C332.882 153.496 338.462 152.009 342.728 148.497C346.973 145.007 349.623 139.211 348.308 133.868C347.468 130.399 345.141 127.533 343.03 124.668C340.918 121.802 338.872 118.613 338.764 115.058C338.635 111.503 341.198 107.625 344.753 107.582C347.77 107.539 350.463 104.781 350.463 101.786C350.441 98.77 347.705 96.0553 344.689 96.0553Z" fill="black"/>
<path d="M24.092 123.655C22.7561 123.159 21.4634 122.427 20.6016 121.285C19.7398 120.143 19.4166 118.527 20.0414 117.256C20.6447 116.049 22.1098 115.317 23.4456 115.597C24.9107 115.877 25.9664 117.17 27.3884 117.622C29.4999 118.333 31.7191 117.084 33.7874 116.265C35.8774 115.446 38.786 115.36 39.7771 117.342C40.3373 118.441 40.0141 119.841 39.26 120.833C38.5059 121.824 37.3855 122.448 36.2652 122.966C32.4516 124.668 27.9917 125.099 24.092 123.655Z" fill="black"/>
<path d="M74.0344 109.974C71.8583 110.146 70.0054 107.539 70.8672 105.535C71.7505 103.532 74.9177 103.144 76.2751 104.846C77.6755 106.656 76.2966 109.801 74.0344 109.974Z" fill="black"/>
<path d="M25.8156 114.433C25.1477 114.455 24.4798 114.261 23.9196 113.916C22.4114 112.968 21.8943 110.706 22.8638 109.198C23.8334 107.69 26.0957 107.216 27.5823 108.185C28.7888 108.982 29.3706 110.577 28.9828 111.956C28.6165 113.356 27.2591 114.39 25.8156 114.433Z" fill="black"/>
<path d="M78.085 114.197C79.9379 114.369 81.8554 113.701 83.2128 112.43C85.0226 110.728 86.3153 107.819 88.7931 107.949C90.646 108.035 91.9387 110.082 91.7663 111.934C91.6155 113.787 90.3874 115.36 89.0301 116.61C85.6043 119.777 80.8212 121.544 76.1674 121.005C74.4222 120.811 72.6339 120.229 71.5136 118.894C70.3932 117.558 70.2855 115.274 71.6428 114.175C73.388 112.775 75.8873 114.003 78.085 114.197Z" fill="black"/>
<path d="M38.1827 107.819C39.3892 108.336 40.208 109.672 40.0787 110.986C39.9494 112.3 38.9368 113.485 37.644 113.766C35.7265 114.196 33.6366 112.387 33.8089 110.405C33.9813 108.422 36.3729 107.043 38.1827 107.819Z" fill="black"/>
<path d="M314.978 108.487C313.599 106.893 312.478 104.824 312.823 102.756C313.168 100.688 315.624 98.9639 317.455 99.9981C319.222 100.989 319.265 103.575 320.601 105.104C321.786 106.462 323.747 106.72 325.513 107.151C327.259 107.582 329.219 108.508 329.542 110.275C329.844 111.87 328.551 113.442 327 113.959C325.449 114.455 323.747 114.11 322.238 113.55C319.459 112.494 316.938 110.749 314.978 108.487Z" fill="black"/>
<path d="M86.2076 102.907C85.8628 105.169 82.6525 106.332 80.9504 104.824C79.313 103.381 79.8947 100.192 81.9631 99.4379C84.0315 98.7053 86.5307 100.731 86.2076 102.907Z" fill="black"/>
<path d="M332.042 106.483C330.253 106.893 328.293 105.255 328.379 103.402C328.487 101.183 331.611 99.8041 333.313 101.248C335.015 102.67 334.218 105.988 332.042 106.483Z" fill="black"/>
<path d="M320.579 94.0731C322.734 93.5129 324.953 96.0768 324.113 98.1236C323.337 100.02 320.407 100.494 319.05 98.9639C317.714 97.4126 318.597 94.5686 320.579 94.0731Z" fill="black"/>
</svg>
