<svg width="81" height="40" viewBox="0 0 81 40" fill="none" xmlns="http://www.w3.org/2000/svg">
<path d="M70.487 19.0543C71.0713 18.0416 73.2868 14.7062 74.767 19.9113C74.767 19.9113 75.8528 21.4841 77.372 20.9582C78.8912 20.4323 81.9344 22.3069 79.8893 24.1231C77.8443 25.9393 77.8443 25.9393 77.8443 25.9393C77.8443 25.9393 79.1054 27.9308 79.7335 29.6643C80.3617 31.3977 79.0519 34.1731 79.0519 34.1731C79.0519 34.1731 72.1279 37.528 68.1936 34.5383C64.2593 31.5486 62.5794 28.2425 63.6847 25.5157C64.7852 22.789 65.3646 21.1091 68.2472 20.2181C70.151 19.6289 70.4578 19.4244 70.4432 19.3514C70.4188 19.254 70.4334 19.1469 70.487 19.0543Z" fill="#EEEEEE"/>
<path d="M12.9334 22.9788C12.9334 22.9788 4.05209 16.5758 1.32536 27.921C1.32536 27.921 0.955298 35.1079 6.84212 35.6143C12.7289 36.1207 12.9383 32.3422 12.9383 32.3422C12.9383 32.3422 17.7637 38.0732 21.7515 36.7099C25.7394 35.3465 29.6542 32.6539 29.0942 26.8693C28.5294 21.0847 22.925 18.7572 20.4174 19.9648C17.9049 21.1772 16.8629 18.991 12.9334 22.9788Z" fill="#EEEEEE"/>
<path d="M56.2544 5.98053C56.2544 5.98053 47.1004 6.5064 45.9464 19.5655C44.7924 32.6246 51.4826 34.6209 55.8649 35.1517C60.2422 35.6824 68.252 33.2624 67.1711 20.5637C66.0852 7.86977 58.0657 4.51004 56.2544 5.98053Z" fill="#EEEEEE"/>
<path d="M36.8166 1.22822C36.8166 1.22822 25.5202 0.950682 24.9261 20.252C24.9261 20.252 19.5944 36.7585 34.8349 38.75C50.0754 40.7415 51.1904 28.3641 51.2245 28.2229C51.2586 28.0817 51.0151 20.3884 49.8611 18.5722C48.7071 16.756 48.3566 12.1741 48.3566 12.1741C48.3566 12.1741 45.9414 -1.43034 36.8166 1.22822Z" fill="#EEEEEE"/>
<path d="M31.743 16.4541C32.9262 17.0968 34.4843 16.9751 35.5555 16.1522C35.8526 15.9234 36.3297 16.0841 36.5002 16.42C36.6706 16.7511 36.5781 17.1747 36.3443 17.4669C36.1155 17.759 35.7746 17.9441 35.4241 18.0804C34.2263 18.5527 32.858 18.5284 31.6456 18.095C31.2074 17.9392 30.7594 17.7006 30.5695 17.277C30.3796 16.8534 30.6182 16.235 31.0808 16.2107C31.3194 16.2009 31.5336 16.3373 31.743 16.4541Z" fill="#BBBBBB"/>
<path d="M36.6268 14.1607C36.7728 14.6184 36.3005 15.1443 35.8282 15.0518C35.351 14.9593 35.1222 14.2679 35.4436 13.9075C35.7747 13.5424 36.4807 13.6933 36.6268 14.1607Z" fill="#BBBBBB"/>
<path d="M58.4211 28.218C58.2556 28.554 57.7492 28.6173 57.4522 28.3835C57.1552 28.1547 57.0724 27.7213 57.1698 27.361C57.2672 27.0007 57.5203 26.6988 57.7979 26.4505C58.7425 25.6081 60.0961 25.2478 61.3329 25.5059C61.6007 25.5643 61.8685 25.6471 62.0779 25.8224C62.2873 25.9977 62.4285 26.2752 62.3749 26.543C62.3019 26.9374 61.8636 27.1565 61.4644 27.176C61.0651 27.1955 60.6707 27.0786 60.2714 27.0737C59.5118 27.0737 58.762 27.5314 58.4211 28.218Z" fill="#BBBBBB"/>
<path d="M30.9007 14.8181C30.8033 14.3312 31.3876 13.854 31.8453 14.0488C32.303 14.2435 32.3614 14.9934 31.9427 15.2612C31.5678 15.5047 30.9883 15.2563 30.9007 14.8181Z" fill="#BBBBBB"/>
<path d="M58.499 29.075C58.6743 28.7098 59.1953 28.5637 59.5313 28.7877C59.8721 29.0068 59.9452 29.5424 59.6822 29.8492C59.4583 30.1073 59.0346 30.1706 58.7474 29.9807C58.4601 29.7908 58.3481 29.3866 58.499 29.075Z" fill="#BBBBBB"/>
<path d="M62.3604 29.187C61.9465 29.2357 61.5423 28.8559 61.5618 28.442C61.5813 28.0282 62.0244 27.6873 62.4285 27.775C62.7596 27.8431 63.0128 28.1742 62.9982 28.5102C62.9787 28.8413 62.6963 29.1481 62.3604 29.187Z" fill="#BBBBBB"/>
<path d="M75.1662 18.7719C75.1954 19.5655 76.0865 20.0476 76.8802 20.106C77.6738 20.1644 78.4919 19.9843 79.2515 20.2083C80.4882 20.5783 81.1991 22.0342 80.9508 23.3002C80.6976 24.5662 79.6507 25.5741 78.4432 26.0318C79.6556 27.624 80.8875 29.4353 80.7414 31.4366C80.5321 34.3045 77.5326 36.2181 74.6842 36.6174C71.0615 37.1286 67.2295 35.887 64.5904 33.355C60.9921 36.3739 55.6068 37.0751 51.3609 35.0738C50.2897 34.5674 49.1357 35.4828 48.2203 36.2327C42.46 40.9801 33.379 41.097 27.502 36.5005C26.6499 35.8334 25.4423 36.4713 24.4685 36.9485C21.1867 38.5407 16.9456 37.859 14.3309 35.3173C13.8391 34.8401 13.0746 34.2753 12.5682 34.7379C9.63699 37.4159 4.52924 37.0653 1.88528 34.1049C-0.753808 31.1444 -0.583387 26.1487 2.15308 23.271C4.88956 20.3982 9.74898 19.9356 13.06 22.1219C16.0935 19.2442 20.69 18.1291 24.7022 19.2977C24.6389 15.3683 25.1063 11.3513 26.8154 7.80651C28.5196 4.26662 31.6018 1.24774 35.4144 0.307994C38.2482 -0.393166 41.3645 0.118096 43.8283 1.68597C46.2921 3.25384 48.0742 5.85884 48.639 8.72678C50.8788 6.12178 54.37 4.43218 57.759 4.98239C60.7924 5.47418 63.3488 7.67017 64.9361 10.3044C66.5283 12.9337 67.2782 15.977 67.8771 18.9958C69.1236 19.1127 69.7566 17.5692 70.7207 16.7706C72.2837 15.49 75.0981 16.7609 75.1662 18.7719ZM42.5574 3.08342C40.4345 1.71518 37.6542 1.55937 35.2683 2.392C32.8824 3.22462 30.8812 4.96292 29.4399 7.03718C28.7339 8.0597 28.1447 9.16501 27.7552 10.3433C26.9225 12.8364 26.981 15.5193 26.7083 18.134C26.4356 20.7877 25.8221 23.4024 25.6906 26.0659C25.5592 28.7293 25.9682 31.5339 27.5312 33.691C29.474 36.369 32.8873 37.6155 36.1837 37.8931C39.4801 38.1706 42.9177 37.5863 45.7078 35.8139C48.4978 34.0367 50.5526 30.9789 50.6889 27.6727C50.7717 25.6471 50.1631 23.6702 49.7005 21.6982C48.5854 16.9411 48.2641 11.9258 46.1557 7.51923C45.3231 5.78581 44.1837 4.13029 42.5574 3.08342ZM51.2781 32.8632C52.174 33.5352 53.2988 33.8225 54.3992 33.9977C57.5496 34.4993 61.143 34.0951 63.3049 31.7482C64.5612 30.3848 65.165 28.5491 65.5253 26.733C66.1972 23.3197 66.1144 19.7603 65.2867 16.386C64.6001 13.6057 63.3682 10.8838 61.3086 8.8972C60.14 7.77242 58.6744 6.8911 57.0627 6.72068C54.4284 6.44801 51.9647 8.11327 50.1728 10.0658C49.978 10.2752 49.7881 10.4992 49.7054 10.7718C49.6128 11.0883 49.681 11.4243 49.7541 11.7505C50.426 14.8424 51.0979 17.9344 51.7699 21.0312C52.1984 23.0129 52.6317 25.0093 52.6755 27.0348C52.7096 29.0555 52.3445 31.1395 51.2781 32.8632ZM13.284 31.7969C13.7076 31.8845 13.99 32.2741 14.253 32.6149C16.595 35.6387 21.1769 36.6563 24.5756 34.9034C24.9797 34.694 25.4326 34.2704 25.2329 33.8614C23.4508 30.156 23.0856 25.7883 24.2396 21.8443C24.3565 21.445 23.855 21.1578 23.4508 21.0652C19.984 20.2667 16.1276 21.4889 13.7612 24.1426C13.5664 24.3617 13.3668 24.5954 13.0892 24.6782C12.4952 24.8583 11.9791 24.274 11.536 23.8309C9.67108 21.9612 6.3357 22.0683 4.34421 23.8017C2.35272 25.5351 1.71973 28.5248 2.45497 31.0568C2.75199 32.0744 3.26325 33.0531 4.06667 33.7397C5.15736 34.6697 6.70575 34.9618 8.11294 34.6843C9.52013 34.4068 10.7861 33.6033 11.7989 32.5906C12.2128 32.1767 12.7094 31.68 13.284 31.7969ZM77.8978 21.708C77.4158 21.708 76.9678 21.9709 76.4858 21.9904C75.9307 22.0147 75.4194 21.7128 74.9471 21.4207C74.4115 21.0945 73.8223 20.6854 73.7396 20.0622C73.7055 19.7944 73.7688 19.5217 73.7542 19.249C73.7006 18.2703 72.3324 17.6666 71.5728 18.2898C70.9495 18.8011 70.8668 19.7847 70.2143 20.2521C69.8248 20.5296 69.3135 20.5588 68.8509 20.6952C68.3884 20.8315 67.9112 21.187 67.9355 21.6642C68.1254 24.9703 67.4973 28.3203 66.1193 31.3343C65.9051 31.8018 66.3287 32.3033 66.7328 32.6149C68.773 34.1974 71.4121 34.9862 73.9879 34.7865C75.2295 34.6892 76.4906 34.3532 77.4547 33.5595C78.414 32.7707 79.0129 31.4609 78.7159 30.2534C78.526 29.4694 78.0001 28.8218 77.5229 28.1742C77.0457 27.5266 76.5832 26.806 76.5588 26.0026C76.5296 25.1992 77.109 24.3227 77.9124 24.313C78.5941 24.3032 79.2028 23.68 79.2028 23.0032C79.1979 22.3215 78.5795 21.708 77.8978 21.708Z" fill="#BBBBBB"/>
<path d="M5.44466 27.9454C5.14278 27.8334 4.85063 27.6678 4.65586 27.4098C4.46109 27.1517 4.38805 26.7865 4.52926 26.4992C4.6656 26.2266 4.9967 26.061 5.29859 26.1243C5.62969 26.1876 5.86828 26.4798 6.18965 26.582C6.66683 26.7427 7.16835 26.4603 7.63579 26.2753C8.1081 26.0902 8.76544 26.0708 8.98942 26.5187C9.11602 26.767 9.04298 27.0835 8.87256 27.3075C8.70214 27.5315 8.44894 27.6727 8.19574 27.7896C7.3339 28.1742 6.32598 28.2716 5.44466 27.9454Z" fill="#BBBBBB"/>
<path d="M16.7314 24.8535C16.2396 24.8925 15.8209 24.3033 16.0156 23.8505C16.2153 23.3976 16.931 23.31 17.2378 23.6947C17.5543 24.1037 17.2427 24.8146 16.7314 24.8535Z" fill="#BBBBBB"/>
<path d="M5.8342 25.8614C5.68325 25.8663 5.53231 25.8224 5.40571 25.7445C5.06487 25.5303 4.94801 25.019 5.16712 24.6782C5.38624 24.3374 5.8975 24.2302 6.23347 24.4494C6.50614 24.6295 6.63761 24.9898 6.54996 25.3015C6.46719 25.6179 6.16043 25.8517 5.8342 25.8614Z" fill="#BBBBBB"/>
<path d="M17.6468 25.8078C18.0655 25.8467 18.4989 25.6958 18.8056 25.4085C19.2147 25.0238 19.5068 24.3665 20.0668 24.3957C20.4855 24.4152 20.7777 24.8778 20.7387 25.2965C20.7046 25.7153 20.4271 26.0707 20.1203 26.3531C19.3461 27.0689 18.2652 27.4682 17.2134 27.3464C16.819 27.3026 16.4149 27.1712 16.1617 26.8693C15.9085 26.5674 15.8841 26.0512 16.1909 25.8029C16.5853 25.4864 17.1501 25.764 17.6468 25.8078Z" fill="#BBBBBB"/>
<path d="M8.62907 24.3665C8.90174 24.4834 9.08677 24.7852 9.05756 25.0823C9.02834 25.3793 8.79949 25.6471 8.50734 25.7104C8.07398 25.8077 7.60167 25.3987 7.64062 24.9508C7.67958 24.5028 8.22006 24.1912 8.62907 24.3665Z" fill="#BBBBBB"/>
<path d="M71.1833 24.5175C70.8717 24.1572 70.6185 23.6897 70.6964 23.2223C70.7743 22.7548 71.3294 22.3653 71.7432 22.599C72.1425 22.823 72.1523 23.4073 72.4541 23.753C72.722 24.0598 73.165 24.1182 73.5643 24.2156C73.9587 24.313 74.4018 24.5223 74.4749 24.9216C74.543 25.2819 74.2509 25.6374 73.9003 25.7542C73.5497 25.8662 73.165 25.7883 72.8242 25.6617C72.1961 25.4231 71.6264 25.0287 71.1833 24.5175Z" fill="#BBBBBB"/>
<path d="M19.4824 23.2564C19.4045 23.7677 18.679 24.0306 18.2944 23.6898C17.9243 23.3636 18.0558 22.6429 18.5232 22.4725C18.9906 22.3069 19.5555 22.7646 19.4824 23.2564Z" fill="#BBBBBB"/>
<path d="M75.0397 24.0646C74.6355 24.1572 74.1924 23.7871 74.2119 23.3684C74.2362 22.8668 74.9423 22.5552 75.3269 22.8814C75.7116 23.2028 75.5315 23.9527 75.0397 24.0646Z" fill="#BBBBBB"/>
<path d="M72.4492 21.26C72.9361 21.1334 73.4376 21.7128 73.2477 22.1754C73.0725 22.6039 72.4103 22.711 72.1035 22.3653C71.8016 22.0147 72.0013 21.372 72.4492 21.26Z" fill="#BBBBBB"/>
</svg>
