<svg width="51" height="33" viewBox="0 0 51 33" fill="none" xmlns="http://www.w3.org/2000/svg">
<path d="M21.3367 7.48051C21.3367 7.48051 6.37581 -3.31282 1.77685 15.8075C1.77685 15.8075 1.15009 27.9195 11.0643 28.7741C20.9785 29.6288 21.3367 23.2635 21.3367 23.2635C21.3367 23.2635 29.4683 32.9173 36.1836 30.6219C42.8989 28.3265 49.5003 23.7926 48.5561 14.0412C47.6118 4.28972 38.1779 0.366355 33.9452 2.40944C29.7125 4.44438 27.9625 0.765203 21.3367 7.48051Z" fill="#EEEEEE"/>
<path d="M22.6635 4.83505C26.4078 1.95357 30.9905 0.00816316 35.7197 2.33925e-05C40.4408 -0.00811637 45.2676 2.10823 47.9538 5.99904C49.8015 8.66888 50.5585 11.998 50.5015 15.2458C50.3876 22.0018 46.3828 28.8636 40.0419 31.1835C34.1243 33.3486 27.1974 31.2404 22.5821 26.9508C22.1589 26.5601 21.524 26.1287 21.0763 26.5031C18.7239 28.4485 15.8668 29.8404 12.8307 30.1579C9.79455 30.4753 6.60377 29.6532 4.30021 27.6508C2.57458 26.1531 1.4106 24.0774 0.726859 21.896C-0.990631 16.4586 0.352429 9.99566 4.57697 6.16183C8.8015 2.328 15.8505 1.77449 20.2542 5.40483C20.9379 5.97461 21.9472 5.38041 22.6635 4.83505ZM22.8263 9.05959C22.4356 9.49913 21.9961 10.0038 21.41 10.0526C20.6286 10.1178 20.0425 9.39332 19.5134 8.80725C16.404 5.35599 10.4376 5.42111 6.95378 8.4898C3.46182 11.5585 2.48504 16.8982 4.01532 21.2855C4.46301 22.5716 5.11419 23.8088 6.07468 24.7775C7.85729 26.5764 10.6004 27.252 13.0993 26.8287C15.5982 26.4054 17.8611 24.9891 19.6274 23.1739C20.189 22.596 20.7995 21.9286 21.6054 21.9204C22.4763 21.9123 23.1193 22.6693 23.6891 23.3286C25.659 25.5996 28.2311 27.3903 31.1126 28.2369C34.0022 29.0834 37.2093 28.945 39.9198 27.6427C44.2583 25.567 46.8468 20.732 47.1479 15.9377C47.3921 12.0306 46.106 7.79792 42.9315 5.49436C41.385 4.37922 39.5128 3.79315 37.6244 3.54082C32.187 2.83266 26.4648 4.96528 22.8263 9.05959Z" fill="#BBBBBB"/>
<path d="M13.4412 15.2052C12.1714 15.7749 10.7062 15.9052 9.35501 15.5796C8.74453 15.4331 8.13405 15.1807 7.71078 14.7249C7.28752 14.2691 7.08402 13.5528 7.35263 12.9911C7.62124 12.4214 8.42708 12.1365 8.9236 12.519C9.7213 13.1214 10.812 13.3167 11.7644 13.0156C12.2446 12.8609 12.6842 12.6004 13.1726 12.4539C13.6609 12.3155 14.2389 12.3318 14.597 12.6818C14.9959 13.0644 14.9877 13.7319 14.711 14.204C14.4342 14.6761 13.9377 14.9772 13.4412 15.2052Z" fill="#BBBBBB"/>
<path d="M34.6453 10.4515C34.7673 11.005 34.4987 11.5748 34.1732 12.0469C32.9033 13.8376 30.5265 14.7737 28.3695 14.326C27.816 14.212 27.2543 13.9923 26.8881 13.5609C26.5218 13.1295 26.4241 12.4294 26.7985 11.998C27.0915 11.648 27.5962 11.5585 28.052 11.5992C28.5079 11.6399 28.9474 11.7783 29.4032 11.8108C30.2335 11.8678 31.0719 11.5259 31.6335 10.9154C32.0568 10.4596 32.3417 9.83286 32.9115 9.58053C33.5789 9.27121 34.4906 9.72704 34.6453 10.4515Z" fill="#BBBBBB"/>
<path d="M10.6899 11.0864C10.576 11.3794 10.3481 11.6236 10.0632 11.7701C9.70503 11.9492 9.26548 11.9492 8.90734 11.762C8.32127 11.4608 8.04452 10.6631 8.32127 10.0689C8.59802 9.46657 9.38758 9.17354 9.99806 9.43401C10.6085 9.69448 10.9341 10.4678 10.6899 11.0864Z" fill="#BBBBBB"/>
<path d="M31.9754 8.43289C31.2998 8.84802 30.2661 8.38406 30.144 7.59449C30.0137 6.81307 30.844 6.03979 31.6091 6.21072C32.0731 6.31654 32.4556 6.72353 32.537 7.19564C32.6103 7.66775 32.3824 8.18055 31.9754 8.43289Z" fill="#BBBBBB"/>
<path d="M28.1904 10.1504C27.6125 10.3538 26.9044 10.0445 26.6683 9.48289C26.4323 8.92125 26.709 8.19682 27.2625 7.92821C27.816 7.6596 28.5486 7.90379 28.8416 8.44101C29.1753 9.04335 28.8416 9.9143 28.1904 10.1504Z" fill="#BBBBBB"/>
<path d="M12.7412 9.87352C13.0261 9.40142 13.661 9.18164 14.1819 9.36885C14.7924 9.59676 15.1261 10.3782 14.8656 10.9805C14.597 11.5747 13.7912 11.8596 13.2133 11.5584C12.6354 11.2573 12.4074 10.4352 12.7412 9.87352Z" fill="#BBBBBB"/>
</svg>
