<svg width="134" height="85" viewBox="0 0 134 85" fill="none" xmlns="http://www.w3.org/2000/svg">
<path d="M56.4771 19.8004C56.4771 19.8004 16.8765 -8.76895 4.70332 41.8414C4.70332 41.8414 3.04432 73.9011 29.2867 76.1634C55.5291 78.4257 56.4771 61.5771 56.4771 61.5771C56.4771 61.5771 78.0011 87.1301 95.7761 81.0543C113.551 74.9784 131.025 62.9776 128.525 37.166C126.026 11.3545 101.055 0.969608 89.8511 6.37753C78.6475 11.7639 74.0152 2.02534 56.4771 19.8004Z" fill="#E26A6A"/>
<path d="M59.9891 12.7981C69.9 5.17099 82.0301 0.0216074 94.548 6.19187e-05C107.044 -0.0214836 119.821 5.58036 126.931 15.8791C131.822 22.946 133.826 31.7581 133.675 40.3548C133.373 58.2376 122.773 76.4004 105.989 82.5409C90.3251 88.272 71.9899 82.6917 59.7736 71.3372C58.6532 70.303 56.9727 69.1611 55.7877 70.1522C49.5611 75.3016 41.9986 78.9859 33.9621 79.8261C25.9256 80.6664 17.4798 78.4903 11.3824 73.1901C6.81477 69.2258 3.73378 63.7316 1.92395 57.9575C-2.62215 43.5651 0.932859 26.4579 12.115 16.31C23.2971 6.16209 41.9555 4.69699 53.6116 14.3063C55.4214 15.8145 58.0931 14.2416 59.9891 12.7981ZM60.42 23.9802C59.3858 25.1437 58.2223 26.4795 56.6711 26.6088C54.6027 26.7811 53.0514 24.8636 51.651 23.3123C43.4206 14.177 27.6277 14.3494 18.4063 22.472C9.16324 30.5947 6.57777 44.7285 10.6283 56.3415C11.8133 59.7457 13.537 63.0206 16.0793 65.5846C20.7978 70.3461 28.0586 72.1344 34.6731 71.014C41.2876 69.8936 47.2772 66.1448 51.9526 61.3401C53.4392 59.8104 55.0551 58.0436 57.1882 58.0221C59.4935 58.0005 61.1956 60.0043 62.7038 61.7495C67.9178 67.7606 74.7262 72.5007 82.3533 74.7414C90.0019 76.9821 98.4909 76.6158 105.666 73.1686C117.149 67.6745 124.001 54.8765 124.798 42.1862C125.444 31.8443 122.04 20.6406 113.637 14.5433C109.544 11.5915 104.588 10.0403 99.5897 9.37235C85.1973 7.4979 70.0508 13.1428 60.42 23.9802Z" fill="black"/>
<path d="M35.578 40.247C32.2169 41.7552 28.3387 42.0999 24.7622 41.2381C23.1463 40.8503 21.5304 40.1824 20.41 38.9758C19.2896 37.7693 18.751 35.8733 19.462 34.3866C20.173 32.8784 22.306 32.1244 23.6203 33.137C25.7317 34.7314 28.6188 35.2485 31.1396 34.4513C32.4108 34.0419 33.5743 33.3524 34.867 32.9646C36.1597 32.5984 37.6895 32.6415 38.6375 33.5679C39.6932 34.5805 39.6717 36.3473 38.9391 37.5969C38.2066 38.8465 36.8923 39.6437 35.578 40.247Z" fill="black"/>
<path d="M91.704 27.6646C92.0272 29.1296 91.3162 30.6378 90.4544 31.8875C87.0933 36.6275 80.802 39.1052 75.0925 37.9202C73.6274 37.6186 72.1407 37.0368 71.1712 35.8949C70.2016 34.753 69.9431 32.9001 70.9342 31.7582C71.7098 30.8317 73.0456 30.5947 74.2522 30.7025C75.4587 30.8102 76.6222 31.1765 77.8287 31.2626C80.0264 31.4135 82.2456 30.5085 83.7322 28.8926C84.8526 27.6861 85.6067 26.0271 87.1149 25.3592C88.8816 24.5405 91.2947 25.747 91.704 27.6646Z" fill="black"/>
<path d="M28.2956 29.3449C27.994 30.1206 27.3907 30.7669 26.6366 31.1547C25.6886 31.6287 24.5252 31.6287 23.5772 31.1332C22.0259 30.336 21.2933 28.2246 22.0259 26.6518C22.7584 25.0574 24.8483 24.2818 26.4643 24.9712C28.0802 25.6607 28.942 27.7075 28.2956 29.3449Z" fill="black"/>
<path d="M84.6371 22.3213C82.8488 23.4202 80.1126 22.1921 79.7894 20.1021C79.4446 18.0338 81.6423 15.9869 83.6676 16.4394C84.8957 16.7195 85.9083 17.7968 86.1237 19.0464C86.3176 20.2961 85.7144 21.6534 84.6371 22.3213Z" fill="black"/>
<path d="M74.6184 26.8675C73.0887 27.4061 71.2142 26.5874 70.5894 25.1007C69.9646 23.6141 70.6972 21.6966 72.1622 20.9856C73.6273 20.2746 75.5664 20.921 76.342 22.343C77.2254 23.9373 76.342 26.2427 74.6184 26.8675Z" fill="black"/>
<path d="M33.7251 26.1347C34.4792 24.8851 36.1597 24.3033 37.5386 24.7989C39.1546 25.4021 40.0379 27.4705 39.3485 29.0649C38.6375 30.6377 36.5045 31.3918 34.9747 30.5946C33.445 29.7974 32.8417 27.6213 33.7251 26.1347Z" fill="black"/>
</svg>
