<svg width="40" height="53" viewBox="0 0 40 53" fill="none" xmlns="http://www.w3.org/2000/svg">
<path d="M19.8143 2.12654C19.8143 2.12654 4.42289 3.01377 2.4817 25.0156C0.540511 47.0173 11.7897 50.3791 19.1564 51.2744C26.5151 52.1698 39.9816 48.0918 38.1623 26.7005C36.3429 5.30919 22.8602 -0.347952 19.8143 2.12654Z" fill="#EEEEEE"/>
<path d="M1.32024 20.6852C2.50608 15.6548 4.3092 10.657 7.58242 6.66038C10.8556 2.6719 15.7939 -0.193301 20.9433 0.0101928C24.3546 0.140429 27.6441 1.61373 30.2757 3.79518C32.9073 5.98478 34.9053 8.85812 36.3835 11.9512C39.7786 19.0491 40.469 27.2214 39.5024 35.0275C38.9176 39.7322 37.6262 44.608 34.2961 47.9778C31.5509 50.7535 27.6766 52.1861 23.8023 52.6663C16.9716 53.5129 9.58859 51.3314 5.0808 46.122C2.16495 42.7602 0.605498 38.3566 0.150658 33.9286C-0.29606 29.5006 0.296853 25.0237 1.32024 20.6852ZM23.3637 49.3534C26.2227 49.036 29.1061 48.1488 31.2666 46.2441C33.9469 43.8917 35.1896 40.302 35.8637 36.8019C36.8303 31.8123 36.8627 26.6354 35.9693 21.6294C34.954 15.9234 32.6067 10.2663 28.3101 6.39177C27.0837 5.28476 25.6867 4.32427 24.1353 3.76262C20.3829 2.41142 16.0376 3.58355 12.8943 6.0499C9.75103 8.51625 7.66364 12.114 6.20977 15.8339C4.47164 20.2538 3.51322 24.983 3.39139 29.7285C3.26956 34.417 4.04116 39.3497 6.85955 43.1021C10.5551 48.0429 17.2478 50.0453 23.3637 49.3534Z" fill="#BBBBBB"/>
<path d="M24.4196 38.7555C24.2084 39.0485 24.0379 39.3823 23.7536 39.602C23.2175 40.0253 22.3403 39.8869 21.9586 39.3253C21.4306 38.5439 21.9261 37.4776 22.5677 36.7938C24.1434 35.1007 26.6451 34.3193 28.8949 34.8321C29.7721 35.0275 30.763 35.6787 30.6087 36.5578C30.4868 37.2415 29.7152 37.6159 29.0248 37.6404C28.3345 37.6648 27.6522 37.445 26.9618 37.4531C25.9709 37.4613 25.0044 37.9578 24.4196 38.7555Z" fill="#BBBBBB"/>
<path d="M23.9323 41.7427C23.7536 41.1567 24.1029 40.4566 24.6877 40.245C25.2643 40.0415 25.9791 40.359 26.2146 40.9287C26.4583 41.5311 26.1172 42.3125 25.4999 42.5323C24.8826 42.7521 24.1273 42.3695 23.9323 41.7427Z" fill="#BBBBBB"/>
<path d="M30.8523 40.945C30.1294 41.2055 29.2441 40.5868 29.236 39.8217C29.2279 39.0566 30.105 38.4217 30.8279 38.6659C31.299 38.8287 31.6401 39.3008 31.6401 39.7973C31.6564 40.302 31.3152 40.7822 30.8523 40.945Z" fill="#BBBBBB"/>
</svg>
