<svg width="106" height="140" viewBox="0 0 106 140" fill="none" xmlns="http://www.w3.org/2000/svg">
<path d="M52.4475 5.62885C52.4475 5.62885 11.7072 7.97732 6.56896 66.2148C1.43073 124.452 31.2066 133.351 50.7061 135.721C70.184 138.091 105.829 127.296 101.013 70.6747C96.1976 14.0531 60.5096 -0.920977 52.4475 5.62885Z" fill="#656CD2"/>
<path d="M3.49461 54.7526C6.63344 41.4374 11.4062 28.2085 20.0702 17.6297C28.7343 7.07236 41.8056 -0.511658 55.4358 0.0269797C64.4654 0.371708 73.1724 4.27144 80.138 10.0456C87.1037 15.8414 92.3924 23.4469 96.3052 31.6342C105.292 50.4219 107.119 72.0536 104.561 92.7157C103.013 105.169 99.5945 118.075 90.78 126.995C83.5134 134.342 73.2584 138.134 63.0035 139.405C44.9229 141.646 25.3805 135.871 13.4486 122.082C5.7305 113.184 1.60272 101.528 0.398783 89.8071C-0.783654 78.0863 0.785754 66.2363 3.49461 54.7526ZM61.8425 130.636C69.4101 129.796 77.0422 127.447 82.7609 122.405C89.8555 116.179 93.1449 106.677 94.9293 97.4127C97.4876 84.2053 97.5736 70.5023 95.2087 57.2518C92.5214 42.1484 86.3082 27.1743 74.9353 16.9187C71.689 13.9885 67.9912 11.4461 63.8849 9.95945C53.9524 6.3829 42.4505 9.48546 34.1305 16.0137C25.8104 22.542 20.2852 32.0651 16.4369 41.9114C11.8362 53.6107 9.2993 66.1286 8.97682 78.6896C8.65434 91.0998 10.6967 104.156 18.1568 114.089C27.9388 127.167 45.6539 132.467 61.8425 130.636Z" fill="black"/>
<path d="M64.6374 102.584C64.0784 103.359 63.6269 104.243 62.8745 104.824C61.4555 105.945 59.1336 105.578 58.1232 104.092C56.7258 102.023 58.0372 99.201 59.7356 97.3912C63.9064 92.9097 70.528 90.8414 76.4832 92.1987C78.8051 92.7158 81.428 94.4394 81.0195 96.7663C80.697 98.5762 78.6546 99.5673 76.8272 99.6319C74.9998 99.6965 73.1939 99.1148 71.3665 99.1364C68.7437 99.1579 66.1853 100.472 64.6374 102.584Z" fill="black"/>
<path d="M63.3474 110.491C62.8745 108.939 63.7989 107.087 65.3468 106.526C66.8732 105.988 68.7651 106.828 69.3886 108.336C70.0335 109.931 69.1306 111.999 67.4967 112.581C65.8628 113.162 63.8634 112.15 63.3474 110.491Z" fill="black"/>
<path d="M81.6644 108.379C79.751 109.069 77.4077 107.431 77.3862 105.406C77.3647 103.381 79.6865 101.7 81.5999 102.347C82.8468 102.777 83.7498 104.027 83.7498 105.341C83.7928 106.677 82.8898 107.948 81.6644 108.379Z" fill="black"/>
</svg>
