<svg width="49" height="68" viewBox="0 0 49 68" fill="none" xmlns="http://www.w3.org/2000/svg">
<path d="M22.8317 2.03065C22.8317 2.03065 3.8421 1.55854 2.84308 34.0769C2.84308 34.0769 -6.11565 61.8823 19.4935 65.244C45.1026 68.6057 46.9869 47.7435 47.0438 47.5075C47.1006 47.2714 46.6945 34.3129 44.7533 31.2443C42.8122 28.1756 42.2274 20.4591 42.2274 20.4591C42.2274 20.4591 38.1744 -2.44621 22.8317 2.03065Z" fill="#EEEEEE"/>
<path d="M46.2316 32.1559C47.4499 37.6584 49.2693 43.2341 48.4652 48.818C47.5799 54.9554 43.4701 60.3765 38.1338 63.5184C32.7976 66.6604 26.373 67.6453 20.2245 67.0185C15.2944 66.5138 10.3155 64.9266 6.61991 61.6218C2.12024 57.6008 -0.0321263 51.3657 0.00036226 45.3179C0.0328508 39.3921 1.96592 33.6129 2.04714 27.6872C2.15273 19.6858 4.68684 11.432 10.4211 5.87259C16.1553 0.304992 25.4227 -1.90089 32.4483 1.89224C37.4922 4.61906 40.7248 9.88549 42.5442 15.3391C44.3635 20.7765 44.9889 26.5476 46.2316 32.1559ZM31.9041 5.28653C27.9487 2.71436 22.6855 2.56785 18.3402 4.40743C13.9948 6.24702 10.5591 9.89364 8.42302 14.11C7.424 16.0717 6.69301 18.1636 6.23817 20.3207C5.58028 23.4463 5.52342 26.6534 5.19041 29.8279C4.69496 34.5653 3.57411 39.2375 3.39542 43.9992C3.21673 48.761 4.0858 53.7832 7.091 57.4787C10.4779 61.6381 16.0335 63.4289 21.3778 63.8033C26.3892 64.1533 31.5711 63.3882 35.9815 60.9788C40.3918 58.5694 43.9574 54.3856 45.0133 49.461C46.1504 44.1783 44.396 38.7735 43.2102 33.5071C41.7157 26.8976 41.0659 20.0276 38.4181 13.7926C36.9967 10.4471 34.9337 7.25635 31.9041 5.28653Z" fill="#BBBBBB"/>
<path d="M21.1667 27.1662C21.7677 27.4592 21.922 28.3139 21.6378 28.9244C21.3535 29.5349 20.7524 29.9256 20.1433 30.2105C18.0884 31.1791 15.6517 31.2035 13.5075 30.4628C12.7521 30.2024 11.9643 29.7872 11.6394 29.0546C11.3145 28.3221 11.745 27.2476 12.5491 27.2313C12.9633 27.2232 13.3288 27.4837 13.6862 27.6953C15.2781 28.6232 17.3493 28.6477 18.9574 27.7523C19.6559 27.3697 20.4519 26.8162 21.1667 27.1662Z" fill="#BBBBBB"/>
<path d="M20.655 25.1313C19.924 25.1313 19.323 24.3092 19.5423 23.6091C19.7616 22.9091 20.7362 22.5835 21.3291 23.0068C21.922 23.4301 21.9383 24.4557 21.3535 24.8952C21.1586 25.0499 20.9068 25.1313 20.655 25.1313Z" fill="#BBBBBB"/>
<path d="M12.3704 24.9034C12.1592 24.236 12.7034 23.4464 13.4019 23.4057C14.1004 23.365 14.7339 24.0894 14.604 24.7732C14.474 25.4569 13.6212 25.8965 12.9877 25.6034C12.6953 25.4651 12.4679 25.2046 12.3704 24.9034Z" fill="#BBBBBB"/>
</svg>
