<svg width="129" height="178" viewBox="0 0 129 178" fill="none" xmlns="http://www.w3.org/2000/svg">
<path d="M60.4343 5.37483C60.4343 5.37483 10.1699 4.12518 7.52555 90.1994C7.52555 90.1994 -16.1877 163.799 51.5982 172.697C119.384 181.595 124.372 126.374 124.522 125.749C124.673 125.125 123.598 90.8242 118.46 82.7016C113.321 74.5789 111.774 54.1538 111.774 54.1538C111.774 54.1538 101.046 -6.47519 60.4343 5.37483Z" fill="#F1C40F"/>
<path d="M122.372 85.1148C125.597 99.6796 130.413 114.438 128.285 129.218C125.941 145.464 115.063 159.813 100.938 168.13C86.8134 176.446 69.8078 179.053 53.5331 177.394C40.4833 176.058 27.3045 171.857 17.5225 163.11C5.61216 152.466 -0.0850366 135.962 0.000958881 119.954C0.0869543 104.269 5.20367 88.9715 5.41866 73.2863C5.69815 52.1071 12.4058 30.26 27.584 15.5444C42.7622 0.807296 67.2924 -5.03154 85.8889 5.00866C99.2397 12.2264 107.796 26.1663 112.612 40.6018C117.428 54.9942 119.083 70.27 122.372 85.1148ZM84.4485 13.9931C73.9785 7.18476 60.0473 6.79695 48.5454 11.6662C37.0435 16.5355 27.9495 26.1879 22.2953 37.3485C19.6509 42.5409 17.716 48.0781 16.5121 53.7877C14.7707 62.0612 14.6202 70.5501 13.7387 78.9528C12.4273 91.4923 9.46046 103.859 8.98748 116.464C8.51451 129.068 10.8149 142.361 18.7695 152.143C27.7345 163.153 42.4397 167.893 56.586 168.884C69.8508 169.81 83.5671 167.785 95.2409 161.407C106.915 155.03 116.353 143.956 119.148 130.921C122.158 116.938 117.514 102.631 114.375 88.6914C110.419 71.1964 108.699 53.012 101.691 36.5082C97.9283 27.653 92.4676 19.2072 84.4485 13.9931Z" fill="black"/>
<path d="M56.027 71.9073C57.6179 72.683 58.0264 74.9453 57.2739 76.5612C56.5214 78.1771 54.9305 79.2113 53.3181 79.9654C47.8789 82.5293 41.4292 82.594 35.7536 80.6333C33.7542 79.9438 31.6688 78.845 30.8088 76.9059C29.9489 74.9668 31.0883 72.1228 33.2167 72.0797C34.3131 72.0581 35.2806 72.7476 36.2265 73.3078C40.4403 75.764 45.9225 75.8286 50.1793 73.4586C52.0282 72.446 54.1351 70.9809 56.027 71.9073Z" fill="black"/>
<path d="M54.6726 66.5212C52.7377 66.5212 51.1468 64.3451 51.7272 62.4922C52.3077 60.6392 54.8876 59.7774 56.457 60.8978C58.0264 62.0182 58.0694 64.7329 56.5215 65.8964C56.0055 66.3057 55.339 66.5212 54.6726 66.5212Z" fill="black"/>
<path d="M32.7437 65.9179C32.1848 64.1512 33.6252 62.0613 35.4741 61.9536C37.323 61.8458 38.9999 63.7634 38.6559 65.5732C38.3119 67.383 36.0545 68.5465 34.3776 67.7709C33.6037 67.4046 33.0017 66.7151 32.7437 65.9179Z" fill="black"/>
</svg>
