<svg width="84" height="92" viewBox="0 0 84 92" fill="none" xmlns="http://www.w3.org/2000/svg">
<path d="M35.148 12.8105C37.755 8.2859 47.6444 -6.58047 54.2373 16.624C54.2373 16.624 59.0635 23.6478 65.8503 21.2994C72.6372 18.9509 86.2108 27.3106 77.0755 35.4117C67.9402 43.5128 67.9618 43.5128 67.9618 43.5128C67.9618 43.5128 73.5852 52.411 76.3861 60.1243C79.187 67.8376 73.3482 80.2478 73.3482 80.2478C73.3482 80.2478 42.4735 95.2219 24.9355 81.8852C7.39745 68.5486 -0.100378 53.8115 4.81199 41.6598C9.72436 29.4867 12.2883 22.0104 25.1725 18.046C33.6614 15.4175 35.0188 14.491 34.9541 14.1678C34.8464 13.6938 34.911 13.2198 35.148 12.8105Z" fill="#FCEAD0"/>
<path d="M81.4062 72.1896C79.3378 78.9549 74.0376 84.4705 67.7248 87.7023C61.412 90.9126 54.1727 92.0114 47.1058 91.796C36.6131 91.4943 26.0774 88.3918 17.5669 82.2513C9.03487 76.1109 2.63584 66.8679 0.632111 56.5691C-2.81517 38.8588 8.19459 19.6402 24.957 12.9611C28.3612 11.6037 32.3255 10.3972 33.8984 7.0792C36.2899 2.10219 42.258 -0.871078 47.666 0.227741C53.0739 1.32656 57.4045 6.41129 57.6631 11.9269C57.8139 15.2234 61.4551 17.2702 64.7515 17.5503C68.0264 17.8304 71.3875 17.0547 74.6194 17.7442C79.9411 18.9077 83.7978 24.3802 83.6254 29.8312C83.4315 35.2822 79.5748 40.2808 74.5332 42.3276C73.025 42.9524 72.6372 45.0208 73.262 46.5289C73.8653 48.0371 75.158 49.1359 76.2999 50.3209C81.6432 56.0089 83.7116 64.6918 81.4062 72.1896ZM67.6602 36.8981C68.996 36.3595 70.4826 36.3164 71.8185 35.7777C74.3824 34.7436 75.9337 31.6626 75.2226 28.9909C74.5117 26.3193 71.6676 24.3802 68.9098 24.7465C67.4663 24.9404 66.152 25.6514 64.73 25.8884C61.6705 26.4055 58.7188 24.7249 56.0687 23.109C53.3109 21.4069 50.1437 18.7784 51.0055 15.6543C51.6734 13.2197 50.5961 10.4187 48.4847 9.06138C46.3517 7.70402 43.3568 7.91947 41.4393 9.55693C39.3925 11.3021 38.7676 14.1892 37.044 16.2576C34.7817 18.9938 31.0328 19.8557 27.7364 21.1915C20.6479 24.0139 14.7013 29.6373 11.491 36.5749C8.28077 43.5126 7.82832 51.6568 10.2414 58.896C12.8915 66.8032 18.8381 73.4177 26.0774 77.5113C33.3166 81.6265 41.8056 83.3286 50.1221 83.1132C56.0041 82.9623 62.0799 81.7558 66.8199 78.287C71.5599 74.7966 74.6624 68.6346 73.262 62.925C72.4648 59.6717 70.3534 56.9139 68.3281 54.2422C66.3244 51.549 64.2991 48.705 63.7389 45.4086C63.2218 42.0475 64.5576 38.1693 67.6602 36.8981Z" fill="black"/>
<path d="M49.4543 35.8639C50.5962 36.1225 51.8243 36.1656 52.8154 36.7689C54.7114 37.9323 54.6898 41.2072 52.7723 42.3491C51.6519 43.017 50.2515 42.9524 48.9803 42.7154C45.2098 42.0259 41.7194 39.8929 39.371 36.855C38.4014 35.6054 37.6042 34.1403 37.4965 32.5675C37.3888 30.9947 38.1213 29.2926 39.5218 28.5816C40.9438 27.8706 42.9691 28.5601 43.4 30.0682C44.1972 32.9122 46.6103 35.2176 49.4543 35.8639Z" fill="black"/>
<path d="M45.8561 28.2799C44.1109 28.086 42.7966 26.1038 43.2921 24.4233C43.7877 22.7427 45.9422 21.7732 47.5151 22.5273C49.0879 23.2814 49.6912 25.5652 48.6785 27.0087C48.0537 27.8921 46.9333 28.4092 45.8561 28.2799Z" fill="black"/>
<path d="M56.952 35.3038C55.1853 35.864 53.0953 34.4204 53.0092 32.5675C52.9014 30.3268 55.9178 28.6678 57.7491 29.9389C59.602 31.2101 59.085 34.6143 56.952 35.3038Z" fill="black"/>
</svg>
