<svg width="32" height="35" viewBox="0 0 32 35" fill="none" xmlns="http://www.w3.org/2000/svg">
<path d="M13.2787 4.83968C14.2636 3.13033 17.9998 -2.4861 20.4905 6.28042C20.4905 6.28042 22.3138 8.93398 24.8779 8.04675C27.4419 7.15951 32.5699 10.3177 29.1187 13.3783C25.6674 16.4388 25.6756 16.4388 25.6756 16.4388C25.6756 16.4388 27.8 19.8005 28.8582 22.7146C29.9164 25.6286 27.7105 30.3171 27.7105 30.3171C27.7105 30.3171 16.0462 35.9742 9.42047 30.9357C2.7947 25.8972 -0.0379322 20.3296 1.81793 15.7388C3.6738 11.1399 4.64243 8.31536 9.51 6.81764C12.7171 5.82459 13.2299 5.47458 13.2055 5.35249C13.1648 5.17341 13.1892 4.99433 13.2787 4.83968Z" fill="#EEEEEE"/>
<path d="M30.7548 27.2728C29.9734 29.8287 27.971 31.9125 25.586 33.1334C23.2011 34.3463 20.4661 34.7614 17.7963 34.68C13.8322 34.566 9.85187 33.3939 6.63667 31.0741C3.41332 28.7542 0.995806 25.2623 0.238808 21.3715C-1.06355 14.6806 3.09587 7.41995 9.4286 4.89663C10.7147 4.38383 12.2124 3.928 12.8066 2.67448C13.7101 0.794196 15.9648 -0.329088 18.0079 0.0860391C20.051 0.501166 21.6871 2.42215 21.7848 4.50592C21.8417 5.75131 23.2174 6.52458 24.4627 6.6304C25.7 6.73621 26.9698 6.44318 28.1908 6.70366C30.2013 7.1432 31.6583 9.2107 31.5932 11.2701C31.5199 13.3294 30.0629 15.2178 28.1582 15.9911C27.5884 16.2272 27.4419 17.0086 27.678 17.5784C27.9059 18.1481 28.3943 18.5633 28.8257 19.011C30.8443 21.1599 31.6257 24.4402 30.7548 27.2728ZM25.5616 13.9399C26.0663 13.7364 26.6279 13.7201 27.1326 13.5166C28.1012 13.1259 28.6873 11.9619 28.4187 10.9526C28.1501 9.94327 27.0756 9.2107 26.0337 9.34908C25.4884 9.42233 24.9918 9.69095 24.4546 9.78049C23.2988 9.97584 22.1836 9.34094 21.1824 8.73046C20.1405 8.08742 18.944 7.09436 19.2696 5.9141C19.5219 4.99431 19.1149 3.93614 18.3172 3.42334C17.5114 2.91053 16.38 2.99193 15.6555 3.61055C14.8822 4.26987 14.6462 5.3606 13.995 6.14201C13.1403 7.17576 11.724 7.50135 10.4786 8.00602C7.80065 9.07232 5.55408 11.1968 4.34125 13.8178C3.12843 16.4388 2.95749 19.5156 3.86915 22.2506C4.87034 25.2379 7.11691 27.7368 9.85187 29.2833C12.5868 30.838 15.7939 31.4811 18.9359 31.3997C21.158 31.3427 23.4534 30.8869 25.2442 29.5764C27.0349 28.2577 28.207 25.9298 27.678 23.7727C27.3768 22.5436 26.5791 21.5017 25.814 20.4924C25.057 19.4749 24.2918 18.4005 24.0802 17.1551C23.8848 15.8853 24.3895 14.4201 25.5616 13.9399Z" fill="#BBBBBB"/>
<path d="M18.6835 13.5492C19.115 13.6469 19.5789 13.6631 19.9534 13.8911C20.6697 14.3306 20.6615 15.5678 19.9371 15.9992C19.5138 16.2516 18.9847 16.2272 18.5045 16.1376C17.08 15.8771 15.7614 15.0713 14.8741 13.9236C14.5078 13.4515 14.2067 12.898 14.166 12.3038C14.1253 11.7096 14.402 11.0666 14.9311 10.798C15.4683 10.5294 16.2335 10.7898 16.3963 11.3596C16.6974 12.434 17.6091 13.305 18.6835 13.5492Z" fill="#BBBBBB"/>
<path d="M17.3242 10.684C16.6649 10.6107 16.1683 9.86185 16.3555 9.22695C16.5428 8.59205 17.3567 8.22576 17.9509 8.51065C18.5451 8.79554 18.7731 9.65836 18.3905 10.2037C18.1544 10.5374 17.7312 10.7328 17.3242 10.684Z" fill="#BBBBBB"/>
<path d="M21.5161 13.3376C20.8487 13.5492 20.0591 13.0039 20.0266 12.3039C19.9859 11.4573 21.1254 10.8305 21.8173 11.3108C22.5173 11.791 22.322 13.0771 21.5161 13.3376Z" fill="#BBBBBB"/>
</svg>
